<mxfile host="app.diagrams.net" modified="2022-10-27T03:53:27.318Z" agent="5.0 (Windows NT 10.0; Win64; x64) AppleWebKit/537.36 (KHTML, like Gecko) Chrome/100.0.4896.60 Safari/537.36" etag="hqgkrzZv6PHxg9Zx0OXL" version="20.5.1" type="github">
  <diagram id="W7pLzV4CGx1_tsKxCLEU" name="第 1 页">
    <mxGraphModel dx="2578" dy="-929" grid="1" gridSize="10" guides="1" tooltips="1" connect="1" arrows="1" fold="1" page="1" pageScale="1" pageWidth="413" pageHeight="583" math="0" shadow="0">
      <root>
        <mxCell id="0" />
        <mxCell id="1" parent="0" />
        <mxCell id="16j1ug62YujSaT9Nk4Fa-228" style="edgeStyle=orthogonalEdgeStyle;rounded=0;orthogonalLoop=1;jettySize=auto;html=1;entryX=-0.001;entryY=0.684;entryDx=0;entryDy=0;entryPerimeter=0;fontSize=14;" edge="1" parent="1" source="16j1ug62YujSaT9Nk4Fa-165" target="16j1ug62YujSaT9Nk4Fa-84">
          <mxGeometry relative="1" as="geometry" />
        </mxCell>
        <mxCell id="16j1ug62YujSaT9Nk4Fa-165" value="&lt;font style=&quot;font-size: 20px;&quot;&gt;BattleVisual&lt;/font&gt;" style="shape=umlFrame;whiteSpace=wrap;html=1;rounded=0;shadow=0;glass=0;labelBackgroundColor=none;labelBorderColor=none;sketch=0;fontSize=21;width=160;height=40;" vertex="1" parent="1">
          <mxGeometry x="170" y="3290" width="700" height="430" as="geometry" />
        </mxCell>
        <mxCell id="16j1ug62YujSaT9Nk4Fa-153" style="edgeStyle=orthogonalEdgeStyle;rounded=0;orthogonalLoop=1;jettySize=auto;html=1;entryX=0.501;entryY=-0.005;entryDx=0;entryDy=0;entryPerimeter=0;fontSize=16;" edge="1" parent="1" source="16j1ug62YujSaT9Nk4Fa-84" target="16j1ug62YujSaT9Nk4Fa-69">
          <mxGeometry relative="1" as="geometry" />
        </mxCell>
        <mxCell id="16j1ug62YujSaT9Nk4Fa-84" value="&lt;font style=&quot;font-size: 20px;&quot;&gt;Sound&amp;nbsp;&lt;/font&gt;" style="shape=umlFrame;whiteSpace=wrap;html=1;rounded=0;shadow=0;glass=0;sketch=0;fontSize=14;width=150;height=30;" vertex="1" parent="1">
          <mxGeometry x="1120" y="3040" width="840" height="680" as="geometry" />
        </mxCell>
        <mxCell id="16j1ug62YujSaT9Nk4Fa-69" value="&lt;font style=&quot;font-size: 20px;&quot;&gt;Wwise&lt;/font&gt;" style="shape=umlFrame;whiteSpace=wrap;html=1;rounded=0;shadow=0;glass=0;sketch=0;fontSize=12;width=110;height=40;" vertex="1" parent="1">
          <mxGeometry x="1120" y="3840" width="840" height="560" as="geometry" />
        </mxCell>
        <mxCell id="16j1ug62YujSaT9Nk4Fa-82" style="edgeStyle=orthogonalEdgeStyle;rounded=0;orthogonalLoop=1;jettySize=auto;html=1;fontSize=12;" edge="1" parent="1" source="16j1ug62YujSaT9Nk4Fa-1" target="16j1ug62YujSaT9Nk4Fa-52">
          <mxGeometry relative="1" as="geometry" />
        </mxCell>
        <mxCell id="16j1ug62YujSaT9Nk4Fa-1" value="AKSoundEngine" style="swimlane;fontStyle=0;childLayout=stackLayout;horizontal=1;startSize=26;fillColor=none;horizontalStack=0;resizeParent=1;resizeParentMax=0;resizeLast=0;collapsible=1;marginBottom=0;swimlaneLine=1;glass=0;fontSize=16;rounded=1;" vertex="1" parent="1">
          <mxGeometry x="1560" y="3934" width="170" height="184" as="geometry">
            <mxRectangle x="1520" y="3890" width="60" height="30" as="alternateBounds" />
          </mxGeometry>
        </mxCell>
        <mxCell id="16j1ug62YujSaT9Nk4Fa-2" value="method: PostEvent" style="text;strokeColor=none;fillColor=none;align=left;verticalAlign=top;spacingLeft=4;spacingRight=4;overflow=hidden;rotatable=0;points=[[0,0.5],[1,0.5]];portConstraint=eastwest;fontSize=14;" vertex="1" parent="16j1ug62YujSaT9Nk4Fa-1">
          <mxGeometry y="26" width="170" height="26" as="geometry" />
        </mxCell>
        <mxCell id="16j1ug62YujSaT9Nk4Fa-64" value="method: LoadBank" style="text;strokeColor=none;fillColor=none;align=left;verticalAlign=top;spacingLeft=4;spacingRight=4;overflow=hidden;rotatable=0;points=[[0,0.5],[1,0.5]];portConstraint=eastwest;fontSize=14;" vertex="1" parent="16j1ug62YujSaT9Nk4Fa-1">
          <mxGeometry y="52" width="170" height="28" as="geometry" />
        </mxCell>
        <mxCell id="16j1ug62YujSaT9Nk4Fa-65" value="method: UnLoadBank&#xa;" style="text;strokeColor=none;fillColor=none;align=left;verticalAlign=top;spacingLeft=4;spacingRight=4;overflow=hidden;rotatable=0;points=[[0,0.5],[1,0.5]];portConstraint=eastwest;fontSize=14;" vertex="1" parent="16j1ug62YujSaT9Nk4Fa-1">
          <mxGeometry y="80" width="170" height="26" as="geometry" />
        </mxCell>
        <mxCell id="16j1ug62YujSaT9Nk4Fa-79" value="method: UnLoadBank&#xa;" style="text;strokeColor=none;fillColor=none;align=left;verticalAlign=top;spacingLeft=4;spacingRight=4;overflow=hidden;rotatable=0;points=[[0,0.5],[1,0.5]];portConstraint=eastwest;fontSize=14;" vertex="1" parent="16j1ug62YujSaT9Nk4Fa-1">
          <mxGeometry y="106" width="170" height="26" as="geometry" />
        </mxCell>
        <mxCell id="16j1ug62YujSaT9Nk4Fa-81" value="method: SetRTPCVaule&#xa;&#xa;" style="text;strokeColor=none;fillColor=none;align=left;verticalAlign=top;spacingLeft=4;spacingRight=4;overflow=hidden;rotatable=0;points=[[0,0.5],[1,0.5]];portConstraint=eastwest;fontSize=14;" vertex="1" parent="16j1ug62YujSaT9Nk4Fa-1">
          <mxGeometry y="132" width="170" height="26" as="geometry" />
        </mxCell>
        <mxCell id="16j1ug62YujSaT9Nk4Fa-71" value="。。。。。。。。" style="text;strokeColor=none;fillColor=none;align=left;verticalAlign=top;spacingLeft=4;spacingRight=4;overflow=hidden;rotatable=0;points=[[0,0.5],[1,0.5]];portConstraint=eastwest;" vertex="1" parent="16j1ug62YujSaT9Nk4Fa-1">
          <mxGeometry y="158" width="170" height="26" as="geometry" />
        </mxCell>
        <mxCell id="16j1ug62YujSaT9Nk4Fa-52" value="" style="verticalLabelPosition=bottom;verticalAlign=top;html=1;shape=mxgraph.basic.rect;fillColor2=none;strokeWidth=1;size=20;indent=5;rounded=0;shadow=0;glass=0;sketch=0;fontSize=16;" vertex="1" parent="1">
          <mxGeometry x="1350" y="4240" width="400" height="130" as="geometry" />
        </mxCell>
        <mxCell id="16j1ug62YujSaT9Nk4Fa-53" value="Wwise_C++" style="text;strokeColor=none;fillColor=none;align=left;verticalAlign=top;spacingLeft=4;spacingRight=4;overflow=hidden;rotatable=0;points=[[0,0.5],[1,0.5]];portConstraint=eastwest;rounded=0;shadow=0;glass=0;sketch=0;fontSize=16;" vertex="1" parent="1">
          <mxGeometry x="1350" y="4240" width="120" height="26" as="geometry" />
        </mxCell>
        <mxCell id="16j1ug62YujSaT9Nk4Fa-59" value="传入Event 后触发 Wwise 内部定义的事件行为" style="text;strokeColor=none;fillColor=none;align=left;verticalAlign=top;spacingLeft=4;spacingRight=4;overflow=hidden;rotatable=0;points=[[0,0.5],[1,0.5]];portConstraint=eastwest;rounded=0;shadow=0;glass=0;sketch=0;fontSize=16;" vertex="1" parent="1">
          <mxGeometry x="1390" y="4292" width="340" height="26" as="geometry" />
        </mxCell>
        <mxCell id="16j1ug62YujSaT9Nk4Fa-60" value="AKBankManager" style="swimlane;fontStyle=0;childLayout=stackLayout;horizontal=1;startSize=26;fillColor=none;horizontalStack=0;resizeParent=1;resizeParentMax=0;resizeLast=0;collapsible=1;marginBottom=0;rounded=1;shadow=0;glass=0;sketch=0;fontSize=16;" vertex="1" parent="1">
          <mxGeometry x="1240" y="3934" width="170" height="182" as="geometry" />
        </mxCell>
        <mxCell id="16j1ug62YujSaT9Nk4Fa-61" value="method: LoadBank&#xa;" style="text;strokeColor=none;fillColor=none;align=left;verticalAlign=top;spacingLeft=4;spacingRight=4;overflow=hidden;rotatable=0;points=[[0,0.5],[1,0.5]];portConstraint=eastwest;rounded=0;shadow=0;glass=0;sketch=0;fontSize=14;" vertex="1" parent="16j1ug62YujSaT9Nk4Fa-60">
          <mxGeometry y="26" width="170" height="26" as="geometry" />
        </mxCell>
        <mxCell id="16j1ug62YujSaT9Nk4Fa-80" value="method: LoadBankAsync&#xa;&#xa;" style="text;strokeColor=none;fillColor=none;align=left;verticalAlign=top;spacingLeft=4;spacingRight=4;overflow=hidden;rotatable=0;points=[[0,0.5],[1,0.5]];portConstraint=eastwest;rounded=0;shadow=0;glass=0;sketch=0;fontSize=14;" vertex="1" parent="16j1ug62YujSaT9Nk4Fa-60">
          <mxGeometry y="52" width="170" height="26" as="geometry" />
        </mxCell>
        <mxCell id="16j1ug62YujSaT9Nk4Fa-73" value="method: UnLoadBank&#xa;" style="text;strokeColor=none;fillColor=none;align=left;verticalAlign=top;spacingLeft=4;spacingRight=4;overflow=hidden;rotatable=0;points=[[0,0.5],[1,0.5]];portConstraint=eastwest;rounded=0;shadow=0;glass=0;sketch=0;fontSize=14;" vertex="1" parent="16j1ug62YujSaT9Nk4Fa-60">
          <mxGeometry y="78" width="170" height="26" as="geometry" />
        </mxCell>
        <mxCell id="16j1ug62YujSaT9Nk4Fa-66" value="method: LoadInitBank&#xa;" style="text;strokeColor=none;fillColor=none;align=left;verticalAlign=top;spacingLeft=4;spacingRight=4;overflow=hidden;rotatable=0;points=[[0,0.5],[1,0.5]];portConstraint=eastwest;rounded=0;shadow=0;glass=0;sketch=0;fontSize=14;" vertex="1" parent="16j1ug62YujSaT9Nk4Fa-60">
          <mxGeometry y="104" width="170" height="26" as="geometry" />
        </mxCell>
        <mxCell id="16j1ug62YujSaT9Nk4Fa-72" value="method: UnLoadInitBank&#xa;&#xa;" style="text;strokeColor=none;fillColor=none;align=left;verticalAlign=top;spacingLeft=4;spacingRight=4;overflow=hidden;rotatable=0;points=[[0,0.5],[1,0.5]];portConstraint=eastwest;rounded=0;shadow=0;glass=0;sketch=0;fontSize=14;" vertex="1" parent="16j1ug62YujSaT9Nk4Fa-60">
          <mxGeometry y="130" width="170" height="26" as="geometry" />
        </mxCell>
        <mxCell id="16j1ug62YujSaT9Nk4Fa-77" value="。。。。。。。。&#xa;" style="text;strokeColor=none;fillColor=none;align=left;verticalAlign=top;spacingLeft=4;spacingRight=4;overflow=hidden;rotatable=0;points=[[0,0.5],[1,0.5]];portConstraint=eastwest;rounded=0;shadow=0;glass=0;sketch=0;fontSize=12;" vertex="1" parent="16j1ug62YujSaT9Nk4Fa-60">
          <mxGeometry y="156" width="170" height="26" as="geometry" />
        </mxCell>
        <mxCell id="16j1ug62YujSaT9Nk4Fa-70" value="这个类包含了Wwise C#最底层与C++通信的代码" style="text;strokeColor=none;fillColor=none;align=left;verticalAlign=top;spacingLeft=4;spacingRight=4;overflow=hidden;rotatable=0;points=[[0,0.5],[1,0.5]];portConstraint=eastwest;rounded=0;shadow=0;glass=0;sketch=0;fontSize=14;whiteSpace=wrap;" vertex="1" parent="1">
          <mxGeometry x="1530" y="3884" width="220" height="50" as="geometry" />
        </mxCell>
        <mxCell id="16j1ug62YujSaT9Nk4Fa-75" style="edgeStyle=orthogonalEdgeStyle;rounded=0;orthogonalLoop=1;jettySize=auto;html=1;exitX=1;exitY=0.5;exitDx=0;exitDy=0;fontSize=14;" edge="1" parent="1" source="16j1ug62YujSaT9Nk4Fa-80" target="16j1ug62YujSaT9Nk4Fa-64">
          <mxGeometry relative="1" as="geometry" />
        </mxCell>
        <mxCell id="16j1ug62YujSaT9Nk4Fa-76" value="引用封装" style="text;strokeColor=none;fillColor=none;align=left;verticalAlign=top;spacingLeft=4;spacingRight=4;overflow=hidden;rotatable=0;points=[[0,0.5],[1,0.5]];portConstraint=eastwest;rounded=0;shadow=0;glass=0;sketch=0;fontSize=12;" vertex="1" parent="1">
          <mxGeometry x="1470" y="3970" width="100" height="26" as="geometry" />
        </mxCell>
        <mxCell id="16j1ug62YujSaT9Nk4Fa-78" value="这个类是对 AkSoundEngine Bank 相关 api 进行再一层封装和管理" style="text;strokeColor=none;fillColor=none;align=left;verticalAlign=top;spacingLeft=4;spacingRight=4;overflow=hidden;rotatable=0;points=[[0,0.5],[1,0.5]];portConstraint=eastwest;rounded=0;shadow=0;glass=0;sketch=0;fontSize=14;whiteSpace=wrap;" vertex="1" parent="1">
          <mxGeometry x="1230" y="3884" width="230" height="46" as="geometry" />
        </mxCell>
        <mxCell id="16j1ug62YujSaT9Nk4Fa-85" value="字段" style="swimlane;fontStyle=0;childLayout=stackLayout;horizontal=1;startSize=26;fillColor=none;horizontalStack=0;resizeParent=1;resizeParentMax=0;resizeLast=0;collapsible=1;marginBottom=0;rounded=1;shadow=0;glass=0;sketch=0;fontSize=16;" vertex="1" parent="1">
          <mxGeometry x="1180" y="3110" width="230" height="156" as="geometry" />
        </mxCell>
        <mxCell id="16j1ug62YujSaT9Nk4Fa-86" value="MasterVolume；主音量" style="text;strokeColor=none;fillColor=none;align=left;verticalAlign=top;spacingLeft=4;spacingRight=4;overflow=hidden;rotatable=0;points=[[0,0.5],[1,0.5]];portConstraint=eastwest;rounded=0;shadow=0;glass=0;sketch=0;fontSize=14;" vertex="1" parent="16j1ug62YujSaT9Nk4Fa-85">
          <mxGeometry y="26" width="230" height="26" as="geometry" />
        </mxCell>
        <mxCell id="16j1ug62YujSaT9Nk4Fa-89" value="MusicVolume；音乐音量" style="text;strokeColor=none;fillColor=none;align=left;verticalAlign=top;spacingLeft=4;spacingRight=4;overflow=hidden;rotatable=0;points=[[0,0.5],[1,0.5]];portConstraint=eastwest;rounded=0;shadow=0;glass=0;sketch=0;fontSize=14;" vertex="1" parent="16j1ug62YujSaT9Nk4Fa-85">
          <mxGeometry y="52" width="230" height="26" as="geometry" />
        </mxCell>
        <mxCell id="16j1ug62YujSaT9Nk4Fa-90" value="SFXVolume；音效音量" style="text;strokeColor=none;fillColor=none;align=left;verticalAlign=top;spacingLeft=4;spacingRight=4;overflow=hidden;rotatable=0;points=[[0,0.5],[1,0.5]];portConstraint=eastwest;rounded=0;shadow=0;glass=0;sketch=0;fontSize=14;" vertex="1" parent="16j1ug62YujSaT9Nk4Fa-85">
          <mxGeometry y="78" width="230" height="26" as="geometry" />
        </mxCell>
        <mxCell id="16j1ug62YujSaT9Nk4Fa-91" value="sound_2D；2D音效节点" style="text;strokeColor=none;fillColor=none;align=left;verticalAlign=top;spacingLeft=4;spacingRight=4;overflow=hidden;rotatable=0;points=[[0,0.5],[1,0.5]];portConstraint=eastwest;rounded=0;shadow=0;glass=0;sketch=0;fontSize=14;" vertex="1" parent="16j1ug62YujSaT9Nk4Fa-85">
          <mxGeometry y="104" width="230" height="26" as="geometry" />
        </mxCell>
        <mxCell id="16j1ug62YujSaT9Nk4Fa-101" value="soundPoolRoot；3D音效对象池" style="text;strokeColor=none;fillColor=none;align=left;verticalAlign=top;spacingLeft=4;spacingRight=4;overflow=hidden;rotatable=0;points=[[0,0.5],[1,0.5]];portConstraint=eastwest;rounded=0;shadow=0;glass=0;sketch=0;fontSize=14;" vertex="1" parent="16j1ug62YujSaT9Nk4Fa-85">
          <mxGeometry y="130" width="230" height="26" as="geometry" />
        </mxCell>
        <mxCell id="16j1ug62YujSaT9Nk4Fa-92" value="AKGameObj" style="swimlane;fontStyle=0;childLayout=stackLayout;horizontal=1;startSize=26;fillColor=none;horizontalStack=0;resizeParent=1;resizeParentMax=0;resizeLast=0;collapsible=1;marginBottom=0;swimlaneLine=1;glass=0;fontSize=16;rounded=1;" vertex="1" parent="1">
          <mxGeometry x="1810" y="3934" width="140" height="110" as="geometry">
            <mxRectangle x="1520" y="3890" width="60" height="30" as="alternateBounds" />
          </mxGeometry>
        </mxCell>
        <mxCell id="16j1ug62YujSaT9Nk4Fa-93" value="音效事件发送的载体，和Unity的AudioSource类似。" style="text;strokeColor=none;fillColor=none;align=left;verticalAlign=top;spacingLeft=4;spacingRight=4;overflow=hidden;rotatable=0;points=[[0,0.5],[1,0.5]];portConstraint=eastwest;whiteSpace=wrap;fontSize=14;" vertex="1" parent="16j1ug62YujSaT9Nk4Fa-92">
          <mxGeometry y="26" width="140" height="84" as="geometry" />
        </mxCell>
        <mxCell id="16j1ug62YujSaT9Nk4Fa-99" style="edgeStyle=orthogonalEdgeStyle;rounded=0;orthogonalLoop=1;jettySize=auto;html=1;entryX=1;entryY=0.5;entryDx=0;entryDy=0;fontSize=12;" edge="1" parent="1" source="16j1ug62YujSaT9Nk4Fa-93" target="16j1ug62YujSaT9Nk4Fa-2">
          <mxGeometry relative="1" as="geometry" />
        </mxCell>
        <mxCell id="16j1ug62YujSaT9Nk4Fa-100" value="传入" style="text;strokeColor=none;fillColor=none;align=left;verticalAlign=top;spacingLeft=4;spacingRight=4;overflow=hidden;rotatable=0;points=[[0,0.5],[1,0.5]];portConstraint=eastwest;rounded=0;shadow=0;glass=0;sketch=0;fontSize=12;" vertex="1" parent="1">
          <mxGeometry x="1750" y="3970" width="40" height="26" as="geometry" />
        </mxCell>
        <mxCell id="16j1ug62YujSaT9Nk4Fa-118" style="edgeStyle=orthogonalEdgeStyle;rounded=0;orthogonalLoop=1;jettySize=auto;html=1;exitX=1;exitY=0.5;exitDx=0;exitDy=0;entryX=1;entryY=0.276;entryDx=0;entryDy=0;entryPerimeter=0;fontSize=12;" edge="1" parent="1" source="16j1ug62YujSaT9Nk4Fa-108" target="16j1ug62YujSaT9Nk4Fa-91">
          <mxGeometry relative="1" as="geometry" />
        </mxCell>
        <mxCell id="16j1ug62YujSaT9Nk4Fa-108" value="&lt;div style=&quot;text-align: justify;&quot;&gt;&lt;span style=&quot;background-color: initial;&quot;&gt;&lt;font style=&quot;font-size: 14px;&quot;&gt;&amp;nbsp;拆分 2D 和 3D 的原因是，2D 音效不需要传递位置，所以类似背景音乐和UI的声音全部放在一个节点播放即可，3D 音效因为需要设置位置所以几乎每个 3D 音效的播放都得分开&lt;/font&gt;&lt;/span&gt;&lt;/div&gt;" style="html=1;rounded=1;shadow=0;glass=0;sketch=0;fontSize=12;whiteSpace=wrap;spacingLeft=4;spacingRight=4;" vertex="1" parent="1">
          <mxGeometry x="1180" y="3280" width="230" height="120" as="geometry" />
        </mxCell>
        <mxCell id="16j1ug62YujSaT9Nk4Fa-112" value="方法" style="swimlane;fontStyle=0;childLayout=stackLayout;horizontal=1;startSize=26;fillColor=none;horizontalStack=0;resizeParent=1;resizeParentMax=0;resizeLast=0;collapsible=1;marginBottom=0;rounded=1;shadow=0;glass=0;sketch=0;fontSize=16;labelBackgroundColor=none;labelBorderColor=none;" vertex="1" parent="1">
          <mxGeometry x="1480" y="3110" width="470" height="546" as="geometry" />
        </mxCell>
        <mxCell id="16j1ug62YujSaT9Nk4Fa-113" value="AwakeInitAudioManager；初始化节点" style="text;strokeColor=none;fillColor=none;align=left;verticalAlign=top;spacingLeft=4;spacingRight=4;overflow=hidden;rotatable=0;points=[[0,0.5],[1,0.5]];portConstraint=eastwest;rounded=0;shadow=0;glass=0;sketch=0;fontSize=14;" vertex="1" parent="16j1ug62YujSaT9Nk4Fa-112">
          <mxGeometry y="26" width="470" height="26" as="geometry" />
        </mxCell>
        <mxCell id="16j1ug62YujSaT9Nk4Fa-114" value="LoadInitBank；加载 Init.bnk" style="text;strokeColor=none;fillColor=none;align=left;verticalAlign=top;spacingLeft=4;spacingRight=4;overflow=hidden;rotatable=0;points=[[0,0.5],[1,0.5]];portConstraint=eastwest;rounded=0;shadow=0;glass=0;sketch=0;fontSize=14;" vertex="1" parent="16j1ug62YujSaT9Nk4Fa-112">
          <mxGeometry y="52" width="470" height="26" as="geometry" />
        </mxCell>
        <mxCell id="16j1ug62YujSaT9Nk4Fa-115" value="UnLoadInitBank；卸载 Init.bnk" style="text;strokeColor=none;fillColor=none;align=left;verticalAlign=top;spacingLeft=4;spacingRight=4;overflow=hidden;rotatable=0;points=[[0,0.5],[1,0.5]];portConstraint=eastwest;rounded=0;shadow=0;glass=0;sketch=0;fontSize=14;" vertex="1" parent="16j1ug62YujSaT9Nk4Fa-112">
          <mxGeometry y="78" width="470" height="26" as="geometry" />
        </mxCell>
        <mxCell id="16j1ug62YujSaT9Nk4Fa-116" value="LoadBank；加载指定 bnk" style="text;strokeColor=none;fillColor=none;align=left;verticalAlign=top;spacingLeft=4;spacingRight=4;overflow=hidden;rotatable=0;points=[[0,0.5],[1,0.5]];portConstraint=eastwest;rounded=0;shadow=0;glass=0;sketch=0;fontSize=14;" vertex="1" parent="16j1ug62YujSaT9Nk4Fa-112">
          <mxGeometry y="104" width="470" height="26" as="geometry" />
        </mxCell>
        <mxCell id="16j1ug62YujSaT9Nk4Fa-119" value="LoadBankAsync；异步加载指定 bnk" style="text;strokeColor=none;fillColor=none;align=left;verticalAlign=top;spacingLeft=4;spacingRight=4;overflow=hidden;rotatable=0;points=[[0,0.5],[1,0.5]];portConstraint=eastwest;rounded=0;shadow=0;glass=0;sketch=0;fontSize=14;" vertex="1" parent="16j1ug62YujSaT9Nk4Fa-112">
          <mxGeometry y="130" width="470" height="26" as="geometry" />
        </mxCell>
        <mxCell id="16j1ug62YujSaT9Nk4Fa-120" value="UnLoadBank；卸载指定 bnk" style="text;strokeColor=none;fillColor=none;align=left;verticalAlign=top;spacingLeft=4;spacingRight=4;overflow=hidden;rotatable=0;points=[[0,0.5],[1,0.5]];portConstraint=eastwest;rounded=0;shadow=0;glass=0;sketch=0;fontSize=14;" vertex="1" parent="16j1ug62YujSaT9Nk4Fa-112">
          <mxGeometry y="156" width="470" height="26" as="geometry" />
        </mxCell>
        <mxCell id="16j1ug62YujSaT9Nk4Fa-121" value="SetMasterVolume；设置主音量" style="text;strokeColor=none;fillColor=none;align=left;verticalAlign=top;spacingLeft=4;spacingRight=4;overflow=hidden;rotatable=0;points=[[0,0.5],[1,0.5]];portConstraint=eastwest;rounded=0;shadow=0;glass=0;sketch=0;fontSize=14;" vertex="1" parent="16j1ug62YujSaT9Nk4Fa-112">
          <mxGeometry y="182" width="470" height="26" as="geometry" />
        </mxCell>
        <mxCell id="16j1ug62YujSaT9Nk4Fa-122" value="SetMusicVolume；设置音乐音量" style="text;strokeColor=none;fillColor=none;align=left;verticalAlign=top;spacingLeft=4;spacingRight=4;overflow=hidden;rotatable=0;points=[[0,0.5],[1,0.5]];portConstraint=eastwest;rounded=0;shadow=0;glass=0;sketch=0;fontSize=14;" vertex="1" parent="16j1ug62YujSaT9Nk4Fa-112">
          <mxGeometry y="208" width="470" height="26" as="geometry" />
        </mxCell>
        <mxCell id="16j1ug62YujSaT9Nk4Fa-123" value="SetSFXVolume；设置音效音量" style="text;strokeColor=none;fillColor=none;align=left;verticalAlign=top;spacingLeft=4;spacingRight=4;overflow=hidden;rotatable=0;points=[[0,0.5],[1,0.5]];portConstraint=eastwest;rounded=0;shadow=0;glass=0;sketch=0;fontSize=14;" vertex="1" parent="16j1ug62YujSaT9Nk4Fa-112">
          <mxGeometry y="234" width="470" height="26" as="geometry" />
        </mxCell>
        <mxCell id="16j1ug62YujSaT9Nk4Fa-124" value="PlayMusic；播放音乐" style="text;strokeColor=none;fillColor=none;align=left;verticalAlign=top;spacingLeft=4;spacingRight=4;overflow=hidden;rotatable=0;points=[[0,0.5],[1,0.5]];portConstraint=eastwest;rounded=0;shadow=0;glass=0;sketch=0;fontSize=14;" vertex="1" parent="16j1ug62YujSaT9Nk4Fa-112">
          <mxGeometry y="260" width="470" height="26" as="geometry" />
        </mxCell>
        <mxCell id="16j1ug62YujSaT9Nk4Fa-125" value="StopMusic；暂停音乐" style="text;strokeColor=none;fillColor=none;align=left;verticalAlign=top;spacingLeft=4;spacingRight=4;overflow=hidden;rotatable=0;points=[[0,0.5],[1,0.5]];portConstraint=eastwest;rounded=0;shadow=0;glass=0;sketch=0;fontSize=14;" vertex="1" parent="16j1ug62YujSaT9Nk4Fa-112">
          <mxGeometry y="286" width="470" height="26" as="geometry" />
        </mxCell>
        <mxCell id="16j1ug62YujSaT9Nk4Fa-126" value="Play2DSound；播放 2D 音效" style="text;strokeColor=none;fillColor=none;align=left;verticalAlign=top;spacingLeft=4;spacingRight=4;overflow=hidden;rotatable=0;points=[[0,0.5],[1,0.5]];portConstraint=eastwest;rounded=0;shadow=0;glass=0;sketch=0;fontSize=14;" vertex="1" parent="16j1ug62YujSaT9Nk4Fa-112">
          <mxGeometry y="312" width="470" height="26" as="geometry" />
        </mxCell>
        <mxCell id="16j1ug62YujSaT9Nk4Fa-140" value="PlaySoundToGameObject；播放音效，直接挂载在传入的物体身上" style="text;strokeColor=none;fillColor=none;align=left;verticalAlign=top;spacingLeft=4;spacingRight=4;overflow=hidden;rotatable=0;points=[[0,0.5],[1,0.5]];portConstraint=eastwest;rounded=0;shadow=0;glass=0;sketch=0;fontSize=14;" vertex="1" parent="16j1ug62YujSaT9Nk4Fa-112">
          <mxGeometry y="338" width="470" height="26" as="geometry" />
        </mxCell>
        <mxCell id="16j1ug62YujSaT9Nk4Fa-141" value="PlaySoundToPosition；播放音效，在指定位置播放音效" style="text;strokeColor=none;fillColor=none;align=left;verticalAlign=top;spacingLeft=4;spacingRight=4;overflow=hidden;rotatable=0;points=[[0,0.5],[1,0.5]];portConstraint=eastwest;rounded=0;shadow=0;glass=0;sketch=0;fontSize=14;" vertex="1" parent="16j1ug62YujSaT9Nk4Fa-112">
          <mxGeometry y="364" width="470" height="26" as="geometry" />
        </mxCell>
        <mxCell id="16j1ug62YujSaT9Nk4Fa-142" value="StopSoundByPlayingID；通过 playingID 停止音效播放" style="text;strokeColor=none;fillColor=none;align=left;verticalAlign=top;spacingLeft=4;spacingRight=4;overflow=hidden;rotatable=0;points=[[0,0.5],[1,0.5]];portConstraint=eastwest;rounded=0;shadow=0;glass=0;sketch=0;fontSize=14;" vertex="1" parent="16j1ug62YujSaT9Nk4Fa-112">
          <mxGeometry y="390" width="470" height="26" as="geometry" />
        </mxCell>
        <mxCell id="16j1ug62YujSaT9Nk4Fa-145" value="GetEventIDFromPlayingID；通过 playingID 获取 EventID（找不到返回0）" style="text;strokeColor=none;fillColor=none;align=left;verticalAlign=top;spacingLeft=4;spacingRight=4;overflow=hidden;rotatable=0;points=[[0,0.5],[1,0.5]];portConstraint=eastwest;rounded=0;shadow=0;glass=0;sketch=0;fontSize=14;" vertex="1" parent="16j1ug62YujSaT9Nk4Fa-112">
          <mxGeometry y="416" width="470" height="26" as="geometry" />
        </mxCell>
        <mxCell id="16j1ug62YujSaT9Nk4Fa-151" value="SendAudioByGameObject；通过传入的实体和事件标识发送事件" style="text;strokeColor=none;fillColor=none;align=left;verticalAlign=top;spacingLeft=4;spacingRight=4;overflow=hidden;rotatable=0;points=[[0,0.5],[1,0.5]];portConstraint=eastwest;rounded=0;shadow=0;glass=0;sketch=0;fontSize=14;" vertex="1" parent="16j1ug62YujSaT9Nk4Fa-112">
          <mxGeometry y="442" width="470" height="26" as="geometry" />
        </mxCell>
        <mxCell id="16j1ug62YujSaT9Nk4Fa-152" value="ClearSoundGameObject；清理对象池" style="text;strokeColor=none;fillColor=none;align=left;verticalAlign=top;spacingLeft=4;spacingRight=4;overflow=hidden;rotatable=0;points=[[0,0.5],[1,0.5]];portConstraint=eastwest;rounded=0;shadow=0;glass=0;sketch=0;fontSize=14;" vertex="1" parent="16j1ug62YujSaT9Nk4Fa-112">
          <mxGeometry y="468" width="470" height="26" as="geometry" />
        </mxCell>
        <mxCell id="16j1ug62YujSaT9Nk4Fa-163" value="TearDown；销毁整个音频管理器&#xa;" style="text;strokeColor=none;fillColor=none;align=left;verticalAlign=top;spacingLeft=4;spacingRight=4;overflow=hidden;rotatable=0;points=[[0,0.5],[1,0.5]];portConstraint=eastwest;rounded=0;shadow=0;glass=0;sketch=0;fontSize=14;" vertex="1" parent="16j1ug62YujSaT9Nk4Fa-112">
          <mxGeometry y="494" width="470" height="26" as="geometry" />
        </mxCell>
        <mxCell id="16j1ug62YujSaT9Nk4Fa-158" value="。。。。。。。" style="text;strokeColor=none;fillColor=none;align=left;verticalAlign=top;spacingLeft=4;spacingRight=4;overflow=hidden;rotatable=0;points=[[0,0.5],[1,0.5]];portConstraint=eastwest;rounded=0;shadow=0;glass=0;sketch=0;fontSize=14;" vertex="1" parent="16j1ug62YujSaT9Nk4Fa-112">
          <mxGeometry y="520" width="470" height="26" as="geometry" />
        </mxCell>
        <mxCell id="16j1ug62YujSaT9Nk4Fa-143" value="playingID" style="swimlane;fontStyle=0;childLayout=stackLayout;horizontal=1;startSize=26;fillColor=none;horizontalStack=0;resizeParent=1;resizeParentMax=0;resizeLast=0;collapsible=1;marginBottom=0;swimlaneLine=1;glass=0;fontSize=16;rounded=1;" vertex="1" parent="1">
          <mxGeometry x="1810" y="4075" width="140" height="130" as="geometry">
            <mxRectangle x="1520" y="3890" width="60" height="30" as="alternateBounds" />
          </mxGeometry>
        </mxCell>
        <mxCell id="16j1ug62YujSaT9Nk4Fa-144" value="每次使用 PostEvent 发送事件，都会返回一个全局唯一的 playingID" style="text;strokeColor=none;fillColor=none;align=left;verticalAlign=top;spacingLeft=4;spacingRight=4;overflow=hidden;rotatable=0;points=[[0,0.5],[1,0.5]];portConstraint=eastwest;whiteSpace=wrap;fontSize=14;" vertex="1" parent="16j1ug62YujSaT9Nk4Fa-143">
          <mxGeometry y="26" width="140" height="104" as="geometry" />
        </mxCell>
        <mxCell id="16j1ug62YujSaT9Nk4Fa-146" value="事件标识" style="swimlane;fontStyle=0;childLayout=stackLayout;horizontal=1;startSize=26;fillColor=none;horizontalStack=0;resizeParent=1;resizeParentMax=0;resizeLast=0;collapsible=1;marginBottom=0;rounded=1;shadow=0;glass=0;labelBackgroundColor=none;labelBorderColor=none;sketch=0;fontSize=16;" vertex="1" parent="1">
          <mxGeometry x="1150" y="4150" width="140" height="78" as="geometry" />
        </mxCell>
        <mxCell id="16j1ug62YujSaT9Nk4Fa-147" value="EventID" style="text;strokeColor=none;fillColor=none;align=left;verticalAlign=top;spacingLeft=4;spacingRight=4;overflow=hidden;rotatable=0;points=[[0,0.5],[1,0.5]];portConstraint=eastwest;rounded=0;shadow=0;glass=0;labelBackgroundColor=none;labelBorderColor=none;sketch=0;fontSize=14;" vertex="1" parent="16j1ug62YujSaT9Nk4Fa-146">
          <mxGeometry y="26" width="140" height="26" as="geometry" />
        </mxCell>
        <mxCell id="16j1ug62YujSaT9Nk4Fa-148" value="EventSign" style="text;strokeColor=none;fillColor=none;align=left;verticalAlign=top;spacingLeft=4;spacingRight=4;overflow=hidden;rotatable=0;points=[[0,0.5],[1,0.5]];portConstraint=eastwest;rounded=0;shadow=0;glass=0;labelBackgroundColor=none;labelBorderColor=none;sketch=0;fontSize=14;" vertex="1" parent="16j1ug62YujSaT9Nk4Fa-146">
          <mxGeometry y="52" width="140" height="26" as="geometry" />
        </mxCell>
        <mxCell id="16j1ug62YujSaT9Nk4Fa-150" value="每个事件都有一个事件 ID 和事件 sign且全都是唯一标识，两个都可以做事件发送的参数" style="text;strokeColor=none;fillColor=none;align=left;verticalAlign=top;spacingLeft=4;spacingRight=4;overflow=hidden;rotatable=0;points=[[0,0.5],[1,0.5]];portConstraint=eastwest;rounded=0;shadow=0;glass=0;sketch=0;fontSize=14;whiteSpace=wrap;" vertex="1" parent="1">
          <mxGeometry x="1150" y="4232" width="140" height="138" as="geometry" />
        </mxCell>
        <mxCell id="16j1ug62YujSaT9Nk4Fa-154" value="(internal) SoundGameObject" style="swimlane;fontStyle=0;childLayout=stackLayout;horizontal=1;startSize=26;fillColor=none;horizontalStack=0;resizeParent=1;resizeParentMax=0;resizeLast=0;collapsible=1;marginBottom=0;rounded=1;shadow=0;glass=0;labelBackgroundColor=none;labelBorderColor=none;sketch=0;fontSize=16;" vertex="1" parent="1">
          <mxGeometry x="1180" y="3430" width="230" height="104" as="geometry" />
        </mxCell>
        <mxCell id="16j1ug62YujSaT9Nk4Fa-155" value="public uint playingID" style="text;strokeColor=none;fillColor=none;align=left;verticalAlign=top;spacingLeft=4;spacingRight=4;overflow=hidden;rotatable=0;points=[[0,0.5],[1,0.5]];portConstraint=eastwest;rounded=0;shadow=0;glass=0;labelBackgroundColor=none;labelBorderColor=none;sketch=0;fontSize=14;" vertex="1" parent="16j1ug62YujSaT9Nk4Fa-154">
          <mxGeometry y="26" width="230" height="26" as="geometry" />
        </mxCell>
        <mxCell id="16j1ug62YujSaT9Nk4Fa-160" value="public string eventSign" style="text;strokeColor=none;fillColor=none;align=left;verticalAlign=top;spacingLeft=4;spacingRight=4;overflow=hidden;rotatable=0;points=[[0,0.5],[1,0.5]];portConstraint=eastwest;rounded=1;shadow=0;glass=0;labelBackgroundColor=none;labelBorderColor=none;sketch=0;fontSize=14;" vertex="1" parent="16j1ug62YujSaT9Nk4Fa-154">
          <mxGeometry y="52" width="230" height="26" as="geometry" />
        </mxCell>
        <mxCell id="16j1ug62YujSaT9Nk4Fa-161" value="public AKGameObj akGameObj" style="text;strokeColor=none;fillColor=none;align=left;verticalAlign=top;spacingLeft=4;spacingRight=4;overflow=hidden;rotatable=0;points=[[0,0.5],[1,0.5]];portConstraint=eastwest;rounded=0;shadow=0;glass=0;labelBackgroundColor=none;labelBorderColor=none;sketch=0;fontSize=14;" vertex="1" parent="16j1ug62YujSaT9Nk4Fa-154">
          <mxGeometry y="78" width="230" height="26" as="geometry" />
        </mxCell>
        <mxCell id="16j1ug62YujSaT9Nk4Fa-159" value="AudioManager 依赖 Wwise 的 API，并对其封装。" style="text;strokeColor=none;fillColor=none;align=left;verticalAlign=top;spacingLeft=4;spacingRight=4;overflow=hidden;rotatable=0;points=[[0,0.5],[1,0.5]];portConstraint=eastwest;rounded=0;shadow=0;glass=0;sketch=0;fontSize=14;whiteSpace=wrap;" vertex="1" parent="1">
          <mxGeometry x="1540" y="3760" width="360" height="30" as="geometry" />
        </mxCell>
        <mxCell id="16j1ug62YujSaT9Nk4Fa-162" value="&lt;div style=&quot;text-align: justify;&quot;&gt;&lt;font style=&quot;font-size: 14px;&quot;&gt;对象池列表存储类&lt;/font&gt;&lt;/div&gt;" style="html=1;rounded=1;shadow=0;glass=0;sketch=0;fontSize=12;whiteSpace=wrap;" vertex="1" parent="1">
          <mxGeometry x="1180" y="3534" width="230" height="30" as="geometry" />
        </mxCell>
        <mxCell id="16j1ug62YujSaT9Nk4Fa-164" value="AudioManager" style="text;strokeColor=none;fillColor=none;align=center;verticalAlign=top;spacingLeft=4;spacingRight=4;overflow=hidden;rotatable=0;points=[[0,0.5],[1,0.5]];portConstraint=eastwest;rounded=0;shadow=0;glass=0;labelBackgroundColor=none;labelBorderColor=none;sketch=0;fontSize=21;" vertex="1" parent="1">
          <mxGeometry x="1350" y="3050" width="380" height="40" as="geometry" />
        </mxCell>
        <mxCell id="16j1ug62YujSaT9Nk4Fa-207" value="依赖 Sound 仓，需要调用 AudioManager API" style="text;strokeColor=none;fillColor=none;align=left;verticalAlign=top;spacingLeft=4;spacingRight=4;overflow=hidden;rotatable=0;points=[[0,0.5],[1,0.5]];portConstraint=eastwest;rounded=0;shadow=0;glass=0;sketch=0;fontSize=14;whiteSpace=wrap;" vertex="1" parent="1">
          <mxGeometry x="900" y="3519" width="210" height="45" as="geometry" />
        </mxCell>
        <mxCell id="16j1ug62YujSaT9Nk4Fa-227" style="edgeStyle=orthogonalEdgeStyle;rounded=0;orthogonalLoop=1;jettySize=auto;html=1;fontSize=14;" edge="1" parent="1" source="16j1ug62YujSaT9Nk4Fa-208">
          <mxGeometry relative="1" as="geometry">
            <mxPoint x="1120" y="3156" as="targetPoint" />
          </mxGeometry>
        </mxCell>
        <mxCell id="16j1ug62YujSaT9Nk4Fa-208" value="&lt;font style=&quot;font-size: 20px;&quot;&gt;BattlePreview&lt;/font&gt;" style="shape=umlFrame;whiteSpace=wrap;html=1;rounded=0;shadow=0;glass=0;labelBackgroundColor=none;labelBorderColor=none;sketch=0;fontSize=21;width=160;height=40;" vertex="1" parent="1">
          <mxGeometry x="170" y="3046" width="700" height="220" as="geometry" />
        </mxCell>
        <mxCell id="16j1ug62YujSaT9Nk4Fa-213" value="AppClientBattle" style="swimlane;fontStyle=0;childLayout=stackLayout;horizontal=1;startSize=42;fillColor=none;horizontalStack=0;resizeParent=1;resizeParentMax=0;resizeLast=0;collapsible=1;marginBottom=0;rounded=1;shadow=0;glass=0;sketch=0;fontSize=16;whiteSpace=wrap;" vertex="1" parent="1">
          <mxGeometry x="240" y="3110" width="230" height="130" as="geometry" />
        </mxCell>
        <mxCell id="16j1ug62YujSaT9Nk4Fa-214" value="在单机版入口调用&#xa;AwakeInitAuidoManager 方法初始化音效模块" style="text;strokeColor=none;fillColor=none;align=left;verticalAlign=top;spacingLeft=4;spacingRight=4;overflow=hidden;rotatable=0;points=[[0,0.5],[1,0.5]];portConstraint=eastwest;rounded=0;shadow=0;glass=0;sketch=0;fontSize=14;whiteSpace=wrap;" vertex="1" parent="16j1ug62YujSaT9Nk4Fa-213">
          <mxGeometry y="42" width="230" height="88" as="geometry" />
        </mxCell>
        <mxCell id="16j1ug62YujSaT9Nk4Fa-219" value="跟随特效创建音效" style="swimlane;fontStyle=0;childLayout=stackLayout;horizontal=1;startSize=42;fillColor=none;horizontalStack=0;resizeParent=1;resizeParentMax=0;resizeLast=0;collapsible=1;marginBottom=0;rounded=1;shadow=0;glass=0;sketch=0;fontSize=16;" vertex="1" parent="1">
          <mxGeometry x="240" y="3350" width="230" height="240" as="geometry" />
        </mxCell>
        <mxCell id="16j1ug62YujSaT9Nk4Fa-220" value="在监听技能特效创建和 AE 特效创建的方法里同步创建特效。在特效实例化出来后，调用&#xa;PlaySoundToGameObject 方法，将实例传入，这时候方法内部会往实例身上挂 AKGameObj 组件，同时发送事件播放音效&#xa;" style="text;strokeColor=none;fillColor=none;align=left;verticalAlign=top;spacingLeft=4;spacingRight=4;overflow=hidden;rotatable=0;points=[[0,0.5],[1,0.5]];portConstraint=eastwest;rounded=0;shadow=0;glass=0;sketch=0;fontSize=14;whiteSpace=wrap;" vertex="1" parent="16j1ug62YujSaT9Nk4Fa-219">
          <mxGeometry y="42" width="230" height="198" as="geometry" />
        </mxCell>
        <mxCell id="16j1ug62YujSaT9Nk4Fa-221" value="在指定位置创建音效" style="swimlane;fontStyle=0;childLayout=stackLayout;horizontal=1;startSize=42;fillColor=none;horizontalStack=0;resizeParent=1;resizeParentMax=0;resizeLast=0;collapsible=1;marginBottom=0;rounded=1;shadow=0;glass=0;sketch=0;fontSize=16;" vertex="1" parent="1">
          <mxGeometry x="570" y="3350" width="230" height="240" as="geometry" />
        </mxCell>
        <mxCell id="16j1ug62YujSaT9Nk4Fa-222" value="在监听创建音效的方法中调用&#xa;PlaySoundToPosition 方法。这个方法会在监听中接到的 position 处创建出一个 GameObject 同时挂上 AKGameObj，并发送事件触发音效。&#xa;" style="text;strokeColor=none;fillColor=none;align=left;verticalAlign=top;spacingLeft=4;spacingRight=4;overflow=hidden;rotatable=0;points=[[0,0.5],[1,0.5]];portConstraint=eastwest;rounded=0;shadow=0;glass=0;sketch=0;fontSize=14;whiteSpace=wrap;" vertex="1" parent="16j1ug62YujSaT9Nk4Fa-221">
          <mxGeometry y="42" width="230" height="198" as="geometry" />
        </mxCell>
        <mxCell id="16j1ug62YujSaT9Nk4Fa-223" value="AppNetClientBattle" style="swimlane;fontStyle=0;childLayout=stackLayout;horizontal=1;startSize=42;fillColor=none;horizontalStack=0;resizeParent=1;resizeParentMax=0;resizeLast=0;collapsible=1;marginBottom=0;rounded=1;shadow=0;glass=0;sketch=0;fontSize=16;whiteSpace=wrap;" vertex="1" parent="1">
          <mxGeometry x="570" y="3110" width="230" height="130" as="geometry" />
        </mxCell>
        <mxCell id="16j1ug62YujSaT9Nk4Fa-224" value="在单机版入口调用&#xa;AwakeInitAuidoManager 方法初始化音效模块" style="text;strokeColor=none;fillColor=none;align=left;verticalAlign=top;spacingLeft=4;spacingRight=4;overflow=hidden;rotatable=0;points=[[0,0.5],[1,0.5]];portConstraint=eastwest;rounded=0;shadow=0;glass=0;sketch=0;fontSize=14;whiteSpace=wrap;" vertex="1" parent="16j1ug62YujSaT9Nk4Fa-223">
          <mxGeometry y="42" width="230" height="88" as="geometry" />
        </mxCell>
        <mxCell id="16j1ug62YujSaT9Nk4Fa-225" value=" SoundBank" style="swimlane;fontStyle=0;childLayout=stackLayout;horizontal=1;startSize=42;fillColor=none;horizontalStack=0;resizeParent=1;resizeParentMax=0;resizeLast=0;collapsible=1;marginBottom=0;rounded=1;shadow=0;glass=0;sketch=0;fontSize=16;" vertex="1" parent="1">
          <mxGeometry x="310" y="3610" width="380" height="100" as="geometry" />
        </mxCell>
        <mxCell id="16j1ug62YujSaT9Nk4Fa-226" value="根据玩家进入的关卡和角色动态创建对应的 SoundBank，也包含卸载" style="text;strokeColor=none;fillColor=none;align=left;verticalAlign=top;spacingLeft=4;spacingRight=4;overflow=hidden;rotatable=0;points=[[0,0.5],[1,0.5]];portConstraint=eastwest;rounded=0;shadow=0;glass=0;sketch=0;fontSize=14;whiteSpace=wrap;" vertex="1" parent="16j1ug62YujSaT9Nk4Fa-225">
          <mxGeometry y="42" width="380" height="58" as="geometry" />
        </mxCell>
        <mxCell id="16j1ug62YujSaT9Nk4Fa-229" value="&lt;span style=&quot;color: rgb(0, 0, 0); font-family: Helvetica; font-size: 14px; font-style: normal; font-variant-ligatures: normal; font-variant-caps: normal; font-weight: 400; letter-spacing: normal; orphans: 2; text-align: left; text-indent: 0px; text-transform: none; widows: 2; word-spacing: 0px; -webkit-text-stroke-width: 0px; background-color: rgb(248, 249, 250); text-decoration-thickness: initial; text-decoration-style: initial; text-decoration-color: initial; float: none; display: inline !important;&quot;&gt;依赖 Sound 仓，需要调用 AudioManager API&lt;/span&gt;" style="text;whiteSpace=wrap;html=1;fontSize=14;" vertex="1" parent="1">
          <mxGeometry x="900" y="3170" width="220" height="40" as="geometry" />
        </mxCell>
        <mxCell id="16j1ug62YujSaT9Nk4Fa-247" style="edgeStyle=orthogonalEdgeStyle;rounded=0;orthogonalLoop=1;jettySize=auto;html=1;entryX=0.501;entryY=0.001;entryDx=0;entryDy=0;entryPerimeter=0;fontSize=14;" edge="1" parent="1" source="16j1ug62YujSaT9Nk4Fa-231" target="16j1ug62YujSaT9Nk4Fa-84">
          <mxGeometry relative="1" as="geometry">
            <Array as="points">
              <mxPoint x="1540" y="2975" />
              <mxPoint x="1541" y="2975" />
            </Array>
          </mxGeometry>
        </mxCell>
        <mxCell id="16j1ug62YujSaT9Nk4Fa-231" value="&lt;font style=&quot;font-size: 20px;&quot;&gt;Client&lt;/font&gt;" style="shape=umlFrame;whiteSpace=wrap;html=1;rounded=0;shadow=0;glass=0;labelBackgroundColor=none;labelBorderColor=none;sketch=0;fontSize=21;width=160;height=40;" vertex="1" parent="1">
          <mxGeometry x="1120" y="2470" width="840" height="440" as="geometry" />
        </mxCell>
        <mxCell id="16j1ug62YujSaT9Nk4Fa-232" value="游戏初始化" style="swimlane;fontStyle=0;childLayout=stackLayout;horizontal=1;startSize=42;fillColor=none;horizontalStack=0;resizeParent=1;resizeParentMax=0;resizeLast=0;collapsible=1;marginBottom=0;rounded=1;shadow=0;glass=0;sketch=0;fontSize=16;whiteSpace=wrap;" vertex="1" parent="1">
          <mxGeometry x="1160" y="2530" width="230" height="120" as="geometry" />
        </mxCell>
        <mxCell id="16j1ug62YujSaT9Nk4Fa-233" value="会在程序启动阶段调用&#xa;AwakeInitAuidoManager 方法初始化音效模块" style="text;strokeColor=none;fillColor=none;align=left;verticalAlign=top;spacingLeft=4;spacingRight=4;overflow=hidden;rotatable=0;points=[[0,0.5],[1,0.5]];portConstraint=eastwest;rounded=0;shadow=0;glass=0;sketch=0;fontSize=14;whiteSpace=wrap;" vertex="1" parent="16j1ug62YujSaT9Nk4Fa-232">
          <mxGeometry y="42" width="230" height="78" as="geometry" />
        </mxCell>
        <mxCell id="16j1ug62YujSaT9Nk4Fa-240" value="场景初始化" style="swimlane;fontStyle=0;childLayout=stackLayout;horizontal=1;startSize=42;fillColor=none;horizontalStack=0;resizeParent=1;resizeParentMax=0;resizeLast=0;collapsible=1;marginBottom=0;rounded=1;shadow=0;glass=0;sketch=0;fontSize=16;whiteSpace=wrap;" vertex="1" parent="1">
          <mxGeometry x="1160" y="2690" width="230" height="120" as="geometry" />
        </mxCell>
        <mxCell id="16j1ug62YujSaT9Nk4Fa-241" value="会在根据所进入的场景来加加载场景对应的 SoundBank，同时也会加载 UI 通用的 SoundBank。" style="text;strokeColor=none;fillColor=none;align=left;verticalAlign=top;spacingLeft=4;spacingRight=4;overflow=hidden;rotatable=0;points=[[0,0.5],[1,0.5]];portConstraint=eastwest;rounded=0;shadow=0;glass=0;sketch=0;fontSize=14;whiteSpace=wrap;" vertex="1" parent="16j1ug62YujSaT9Nk4Fa-240">
          <mxGeometry y="42" width="230" height="78" as="geometry" />
        </mxCell>
        <mxCell id="16j1ug62YujSaT9Nk4Fa-242" value="玩家初始化" style="swimlane;fontStyle=0;childLayout=stackLayout;horizontal=1;startSize=42;fillColor=none;horizontalStack=0;resizeParent=1;resizeParentMax=0;resizeLast=0;collapsible=1;marginBottom=0;rounded=1;shadow=0;glass=0;sketch=0;fontSize=16;whiteSpace=wrap;" vertex="1" parent="1">
          <mxGeometry x="1460" y="2530" width="230" height="130" as="geometry" />
        </mxCell>
        <mxCell id="16j1ug62YujSaT9Nk4Fa-243" value="由于玩家可以自由切换武器从而转换职业，所以如果有武器专属音效的 SoundBank 可以一次性全量加载出来" style="text;strokeColor=none;fillColor=none;align=left;verticalAlign=top;spacingLeft=4;spacingRight=4;overflow=hidden;rotatable=0;points=[[0,0.5],[1,0.5]];portConstraint=eastwest;rounded=0;shadow=0;glass=0;sketch=0;fontSize=14;whiteSpace=wrap;" vertex="1" parent="16j1ug62YujSaT9Nk4Fa-242">
          <mxGeometry y="42" width="230" height="88" as="geometry" />
        </mxCell>
        <mxCell id="16j1ug62YujSaT9Nk4Fa-245" value="业务需要" style="swimlane;fontStyle=0;childLayout=stackLayout;horizontal=1;startSize=42;fillColor=none;horizontalStack=0;resizeParent=1;resizeParentMax=0;resizeLast=0;collapsible=1;marginBottom=0;rounded=1;shadow=0;glass=0;sketch=0;fontSize=16;whiteSpace=wrap;" vertex="1" parent="1">
          <mxGeometry x="1460" y="2690" width="230" height="130" as="geometry" />
        </mxCell>
        <mxCell id="16j1ug62YujSaT9Nk4Fa-246" value="暂时没有业务有触发音效" style="text;strokeColor=none;fillColor=none;align=left;verticalAlign=top;spacingLeft=4;spacingRight=4;overflow=hidden;rotatable=0;points=[[0,0.5],[1,0.5]];portConstraint=eastwest;rounded=0;shadow=0;glass=0;sketch=0;fontSize=14;whiteSpace=wrap;" vertex="1" parent="16j1ug62YujSaT9Nk4Fa-245">
          <mxGeometry y="42" width="230" height="88" as="geometry" />
        </mxCell>
        <mxCell id="16j1ug62YujSaT9Nk4Fa-248" value="&lt;span style=&quot;color: rgb(0, 0, 0); font-family: Helvetica; font-size: 14px; font-style: normal; font-variant-ligatures: normal; font-variant-caps: normal; font-weight: 400; letter-spacing: normal; orphans: 2; text-align: left; text-indent: 0px; text-transform: none; widows: 2; word-spacing: 0px; -webkit-text-stroke-width: 0px; background-color: rgb(248, 249, 250); text-decoration-thickness: initial; text-decoration-style: initial; text-decoration-color: initial; float: none; display: inline !important;&quot;&gt;依赖 Sound 仓，需要调用 AudioManager API&lt;/span&gt;" style="text;whiteSpace=wrap;html=1;fontSize=14;" vertex="1" parent="1">
          <mxGeometry x="1550" y="2950" width="220" height="40" as="geometry" />
        </mxCell>
      </root>
    </mxGraphModel>
  </diagram>
</mxfile>
